{"asset":{"version":"2.0","generator":"THREE.GLTFExporter"},"scenes":[{"nodes":[0],"name":"AuxScene"}],"scene":0,"nodes":[{"mesh":0}],"bufferViews":[{"buffer":0,"byteOffset":0,"byteLength":15480,"target":34962,"byteStride":12},{"buffer":0,"byteOffset":15480,"byteLength":15480,"target":34962,"byteStride":12}],"buffers":[{"byteLength":30960,"uri":"data:application/octet-stream;base64,"}],"accessors":[{"bufferView":0,"componentType":5126,"count":1290,"max":[25.400001525878906,-3.591109037399292,25.400001525878906],"min":[-25.399999618530273,-3.591109037399292,-25.399999618530273],"type":"VEC3"},{"bufferView":1,"componentType":5126,"count":1290,"max":[0,1,0],"min":[0,1,0],"type":"VEC3"}],"materials":[{"pbrMetallicRoughness":{"baseColorFactor":[0.5019607843137255,0.5019607843137255,0.5019607843137255,1],"metallicFactor":0,"roughnessFactor":1}}],"meshes":[{"primitives":[{"mode":4,"attributes":{"POSITION":0,"NORMAL":1},"material":0}]}]}