{"asset":{"version":"2.0","generator":"THREE.GLTFExporter"},"scenes":[{"nodes":[0],"name":"AuxScene"}],"scene":0,"nodes":[{"mesh":0}],"bufferViews":[{"buffer":0,"byteOffset":0,"byteLength":9108,"target":34962,"byteStride":12},{"buffer":0,"byteOffset":9108,"byteLength":9108,"target":34962,"byteStride":12}],"buffers":[{"byteLength":18216,"uri":"data:application/octet-stream;base64,"}],"accessors":[{"bufferView":0,"componentType":5126,"count":759,"max":[24.209415435791016,0.10889200121164322,24.44797134399414],"min":[-24.690587997436523,-0.09110800176858902,-24.4520320892334],"type":"VEC3"},{"bufferView":1,"componentType":5126,"count":759,"max":[0.8789379596710205,1,0.5827025771141052],"min":[-0.7130230665206909,0.08789438009262085,-0.7427821159362793],"type":"VEC3"}],"materials":[{"pbrMetallicRoughness":{"baseColorFactor":[0.5019607843137255,0.5019607843137255,0.5019607843137255,1],"metallicFactor":0,"roughnessFactor":1}}],"meshes":[{"primitives":[{"mode":4,"attributes":{"POSITION":0,"NORMAL":1},"material":0}]}]}