{"asset":{"version":"2.0","generator":"THREE.GLTFExporter"},"scenes":[{"nodes":[0],"name":"AuxScene"}],"scene":0,"nodes":[{"mesh":0}],"bufferViews":[{"buffer":0,"byteOffset":0,"byteLength":36576,"target":34962,"byteStride":12},{"buffer":0,"byteOffset":36576,"byteLength":36576,"target":34962,"byteStride":12}],"buffers":[{"byteLength":73152,"uri":"data:application/octet-stream;base64,"}],"accessors":[{"bufferView":0,"componentType":5126,"count":3048,"max":[49.77500534057617,-1.4822200536727905,49.748600006103516],"min":[-49.77499771118164,-3.482219934463501,-49.751399993896484],"type":"VEC3"},{"bufferView":1,"componentType":5126,"count":3048,"max":[0,1,0],"min":[0,-1,0],"type":"VEC3"}],"materials":[{"pbrMetallicRoughness":{"baseColorFactor":[0.5019607843137255,0.5019607843137255,0.5019607843137255,1],"metallicFactor":0,"roughnessFactor":1}}],"meshes":[{"primitives":[{"mode":4,"attributes":{"POSITION":0,"NORMAL":1},"material":0}]}]}