{"accessors" : [{"bufferView" : 0, "byteOffset" : 0, "componentType" : 5123, "count" : 3027, "type" : "SCALAR", "max" : [2504], "min" : [0]}, {"bufferView" : 1, "byteOffset" : 0, "componentType" : 5126, "count" : 2505, "type" : "VEC3", "max" : [816734, 134052, 5661.009765625], "min" : [766709, 84050.6015625, -4791.10986328125], "name" : "POSITION"}, {"bufferView" : 0, "byteOffset" : 6056, "componentType" : 5123, "count" : 432, "type" : "SCALAR", "max" : [359], "min" : [0]}, {"bufferView" : 2, "byteOffset" : 0, "componentType" : 5126, "count" : 360, "type" : "VEC3", "max" : [804428, 112005, -3000], "min" : [789639, 93602.203125, -3791.110107421875], "name" : "POSITION"}, {"bufferView" : 0, "byteOffset" : 6920, "componentType" : 5123, "count" : 1620, "type" : "SCALAR", "max" : [1287], "min" : [0]}, {"bufferView" : 3, "byteOffset" : 0, "componentType" : 5126, "count" : 1288, "type" : "VEC3", "max" : [793310, 121212, -2010.0699462890625], "min" : [792675, 121189, -3791.110107421875], "name" : "POSITION"}, {"bufferView" : 0, "byteOffset" : 10160, "componentType" : 5123, "count" : 19470, "type" : "SCALAR", "max" : [16224], "min" : [0]}, {"bufferView" : 4, "byteOffset" : 0, "componentType" : 5126, "count" : 16225, "type" : "VEC3", "max" : [816734, 134052, 5661.009765625], "min" : [766709, 84050.6015625, -4791.10986328125], "name" : "POSITION"}, {"bufferView" : 4, "byteOffset" : 12, "componentType" : 5126, "count" : 16225, "type" : "VEC3", "max" : [1.0000044107437134, 1.0000044107437134, 1.0000044107437134], "min" : [-1.0000044107437134, -1.0000044107437134, -1.0000044107437134], "name" : "NORMAL"}, {"bufferView" : 0, "byteOffset" : 49100, "componentType" : 5123, "count" : 54, "type" : "SCALAR", "max" : [44], "min" : [0]}, {"bufferView" : 5, "byteOffset" : 0, "componentType" : 5126, "count" : 45, "type" : "VEC3", "max" : [781177, 118086, -8.881779860192562E-13], "min" : [779569, 115600, -2112.7900390625], "name" : "POSITION"}, {"bufferView" : 5, "byteOffset" : 12, "componentType" : 5126, "count" : 45, "type" : "VEC3", "max" : [0.8941647410392761, -0.4477478861808777, 7.942373599769677E-34], "min" : [0.7790270447731018, -0.6269974112510681, 0], "name" : "NORMAL"}, {"bufferView" : 0, "byteOffset" : 49208, "componentType" : 5123, "count" : 258, "type" : "SCALAR", "max" : [214], "min" : [0]}, {"bufferView" : 6, "byteOffset" : 0, "componentType" : 5126, "count" : 215, "type" : "VEC3", "max" : [796222, 123317, 1994.3800048828125], "min" : [783841, 113332, -2702.81005859375], "name" : "POSITION"}, {"bufferView" : 6, "byteOffset" : 12, "componentType" : 5126, "count" : 215, "type" : "VEC3", "max" : [0.9160860180854797, -0.400992751121521, 9.590201784561514E-34], "min" : [-0.28579434752464294, -0.9999992847442627, -0], "name" : "NORMAL"}, {"bufferView" : 0, "byteOffset" : 49724, "componentType" : 5123, "count" : 22122, "type" : "SCALAR", "max" : [18434], "min" : [0]}, {"bufferView" : 7, "byteOffset" : 0, "componentType" : 5126, "count" : 18435, "type" : "VEC3", "max" : [811723, 129052, 1792.030029296875], "min" : [771722, 89050.5, -3791.110107421875], "name" : "POSITION"}, {"bufferView" : 7, "byteOffset" : 12, "componentType" : 5126, "count" : 18435, "type" : "VEC3", "max" : [1.0000017881393433, 0.9999839067459106, 1.0000044107437134], "min" : [-1.0000040531158447, -1.0000032186508179, -1.0000044107437134], "name" : "NORMAL"}, {"bufferView" : 0, "byteOffset" : 93968, "componentType" : 5123, "count" : 48, "type" : "SCALAR", "max" : [39], "min" : [0]}, {"bufferView" : 8, "byteOffset" : 0, "componentType" : 5126, "count" : 40, "type" : "VEC3", "max" : [805767, 102480, -82.5459976196289], "min" : [804256, 99963.5, -2137.320068359375], "name" : "POSITION"}, {"bufferView" : 8, "byteOffset" : 12, "componentType" : 5126, "count" : 40, "type" : "VEC3", "max" : [-0.8048728108406067, 0.5934547781944275, 6.735346612986581E-34], "min" : [-0.8983864784240723, 0.4392157196998596, 0], "name" : "NORMAL"}, {"bufferView" : 0, "byteOffset" : 94064, "componentType" : 5123, "count" : 96, "type" : "SCALAR", "max" : [79], "min" : [0]}, {"bufferView" : 9, "byteOffset" : 0, "componentType" : 5126, "count" : 80, "type" : "VEC3", "max" : [805019, 121517, 2421.510009765625], "min" : [801019, 117115, -2137.320068359375], "name" : "POSITION"}, {"bufferView" : 9, "byteOffset" : 12, "componentType" : 5126, "count" : 80, "type" : "VEC3", "max" : [-0.6002255082130432, -0.518512487411499, 1.3973757972022061E-33], "min" : [-0.8550751805305481, -0.7998363375663757, 0], "name" : "NORMAL"}, {"bufferView" : 0, "byteOffset" : 94256, "componentType" : 5123, "count" : 48, "type" : "SCALAR", "max" : [39], "min" : [0]}, {"bufferView" : 10, "byteOffset" : 0, "componentType" : 5126, "count" : 40, "type" : "VEC3", "max" : [807049, 106569, -82.5459976196289], "min" : [806296, 103731, -2137.320068359375], "name" : "POSITION"}, {"bufferView" : 10, "byteOffset" : 12, "componentType" : 5126, "count" : 40, "type" : "VEC3", "max" : [-0.9380282163619995, 0.34657156467437744, 6.7353507455839085E-34], "min" : [-0.985026478767395, 0.17242878675460815, 0], "name" : "NORMAL"}, {"bufferView" : 0, "byteOffset" : 94352, "componentType" : 5123, "count" : 48, "type" : "SCALAR", "max" : [39], "min" : [0]}, {"bufferView" : 11, "byteOffset" : 0, "componentType" : 5126, "count" : 40, "type" : "VEC3", "max" : [775960, 120987, -128.3820037841797], "min" : [774303, 118278, -2112.7900390625], "name" : "POSITION"}, {"bufferView" : 11, "byteOffset" : 12, "componentType" : 5126, "count" : 40, "type" : "VEC3", "max" : [0.8908185958862305, -0.45436882972717285, 5.8267937130890925E-34], "min" : [0.8093845248222351, -0.5872865319252014, -0], "name" : "NORMAL"}, {"bufferView" : 0, "byteOffset" : 94448, "componentType" : 5123, "count" : 54, "type" : "SCALAR", "max" : [44], "min" : [0]}, {"bufferView" : 12, "byteOffset" : 0, "componentType" : 5126, "count" : 45, "type" : "VEC3", "max" : [799921, 101300, -82.5459976196289], "min" : [797774, 99584.5, -2137.320068359375], "name" : "POSITION"}, {"bufferView" : 12, "byteOffset" : 12, "componentType" : 5126, "count" : 45, "type" : "VEC3", "max" : [-0.5253722667694092, 0.8508776426315308, 8.830653354712808E-34], "min" : [-0.710992693901062, 0.7032056450843811, -0], "name" : "NORMAL"}], "asset" : {"generator" : "Aspose.3D 21.9", "version" : "2.0"}, "buffers" : [{"uri" : "data:application/octet-stream;base64,", "byteLength" : 1168308}], "bufferViews" : [{"buffer" : 0, "byteOffset" : 0, "byteLength" : 94556, "target" : 34963}, {"buffer" : 0, "byteOffset" : 94560, "byteLength" : 36324, "byteStride" : 12, "target" : 34962}, {"buffer" : 0, "byteOffset" : 130888, "byteLength" : 5184, "byteStride" : 12, "target" : 34962}, {"buffer" : 0, "byteOffset" : 136076, "byteLength" : 19440, "byteStride" : 12, "target" : 34962}, {"buffer" : 0, "byteOffset" : 155520, "byteLength" : 467280, "byteStride" : 24, "target" : 34962}, {"buffer" : 0, "byteOffset" : 622804, "byteLength" : 1296, "byteStride" : 24, "target" : 34962}, {"buffer" : 0, "byteOffset" : 624104, "byteLength" : 6192, "byteStride" : 24, "target" : 34962}, {"buffer" : 0, "byteOffset" : 630300, "byteLength" : 530928, "byteStride" : 24, "target" : 34962}, {"buffer" : 0, "byteOffset" : 1161232, "byteLength" : 1152, "byteStride" : 24, "target" : 34962}, {"buffer" : 0, "byteOffset" : 1162388, "byteLength" : 2304, "byteStride" : 24, "target" : 34962}, {"buffer" : 0, "byteOffset" : 1164696, "byteLength" : 1152, "byteStride" : 24, "target" : 34962}, {"buffer" : 0, "byteOffset" : 1165852, "byteLength" : 1152, "byteStride" : 24, "target" : 34962}, {"buffer" : 0, "byteOffset" : 1167008, "byteLength" : 1296, "byteStride" : 24, "target" : 34962}], "meshes" : [{"primitives" : [{"attributes" : {"POSITION" : 1}, "indices" : 0, "mode" : 4}], "name" : ""}, {"primitives" : [{"attributes" : {"POSITION" : 3}, "indices" : 2, "mode" : 4}], "name" : ""}, {"primitives" : [{"attributes" : {"POSITION" : 5}, "indices" : 4, "mode" : 4}], "name" : ""}, {"primitives" : [{"attributes" : {"POSITION" : 7, "NORMAL" : 8}, "indices" : 6, "mode" : 4}], "name" : ""}, {"primitives" : [{"attributes" : {"POSITION" : 10, "NORMAL" : 11}, "indices" : 9, "mode" : 4}], "name" : ""}, {"primitives" : [{"attributes" : {"POSITION" : 13, "NORMAL" : 14}, "indices" : 12, "mode" : 4}], "name" : ""}, {"primitives" : [{"attributes" : {"POSITION" : 16, "NORMAL" : 17}, "indices" : 15, "mode" : 4}], "name" : ""}, {"primitives" : [{"attributes" : {"POSITION" : 19, "NORMAL" : 20}, "indices" : 18, "mode" : 4}], "name" : ""}, {"primitives" : [{"attributes" : {"POSITION" : 22, "NORMAL" : 23}, "indices" : 21, "mode" : 4}], "name" : ""}, {"primitives" : [{"attributes" : {"POSITION" : 25, "NORMAL" : 26}, "indices" : 24, "mode" : 4}], "name" : ""}, {"primitives" : [{"attributes" : {"POSITION" : 28, "NORMAL" : 29}, "indices" : 27, "mode" : 4}], "name" : ""}, {"primitives" : [{"attributes" : {"POSITION" : 31, "NORMAL" : 32}, "indices" : 30, "mode" : 4}], "name" : ""}], "nodes" : [{"mesh" : 0, "name" : "Structural_-_Bearing Vopsea_alba FLAT_PART"}, {"mesh" : 1, "name" : "Structural_-_Bearing Barrisol FLAT_PART"}, {"mesh" : 2, "name" : "2D_Drafting_-_General Paint_-_Anthracite"}, {"mesh" : 3, "name" : "Structural_-_Bearing Vopsea_alba SMOOTH_PART"}, {"mesh" : 4, "name" : "Structural_-_Bearing BITCOIN_GIOTTO SMOOTH_PART"}, {"mesh" : 5, "name" : "Structural_-_Bearing BITCOIN_ANDY_WARHOL SMOOTH_PART"}, {"mesh" : 6, "name" : "Structural_-_Bearing Barrisol SMOOTH_PART"}, {"mesh" : 7, "name" : "Structural_-_Bearing BITCOIN_EDWARD_MUNCH SMOOTH_PART"}, {"mesh" : 8, "name" : "Structural_-_Bearing BITCOIN_BORIS_VALLEJO_mare SMOOTH_PART"}, {"mesh" : 9, "name" : "Structural_-_Bearing BITCOIN_CLAUDE_MONET SMOOTH_PART"}, {"mesh" : 10, "name" : "Structural_-_Bearing BITCOIN_GUSTAVE_COURBET SMOOTH_PART"}, {"mesh" : 11, "name" : "Structural_-_Bearing BITCOIN_FRANZ_MARC SMOOTH_PART"}], "scene" : 0, "scenes" : [{"nodes" : [0, 1, 2, 3, 4, 5, 6, 7, 8, 9, 10, 11]}]}